Coordinates
version=1
nRows=8
nColumns=34
inDegrees=yes

Units are S.I. units (second, meters, Newtons, ...)
If the header above contains a line with 'inDegrees', this indicates whether rotational values are in degrees (yes) or radians (no).

endheader
time	pelvis_tilt	pelvis_list	pelvis_rotation	pelvis_tx	pelvis_ty	pelvis_tz	hip_flexion_r	hip_adduction_r	hip_rotation_r	knee_angle_r	ankle_angle_r	subtalar_angle_r	mtp_angle_r	hip_flexion_l	hip_adduction_l	hip_rotation_l	knee_angle_l	ankle_angle_l	subtalar_angle_l	mtp_angle_l	lumbar_extension	lumbar_bending	lumbar_rotation	arm_flex_r	arm_add_r	arm_rot_r	elbow_flex_r	pro_sup_r	arm_flex_l	arm_add_l	arm_rot_l	elbow_flex_l	pro_sup_l
      4.40000000	    -13.91653027	      0.89231401	     -0.67480524	      0.36400428	      0.69156142	     -0.02714931	     62.36464592	    -19.20272413	     -3.94820784	     77.55531390	     29.84537772	     -3.22462078	      0.00000000	     60.68240256	    -24.04045159	     -7.99857564	     77.00330047	     27.14762202	     -3.19555644	      0.00000000	    -28.89069772	     -2.71491150	      1.38408017	     75.40857136	      8.81557093	     75.80220871	    119.26883442	    101.16426249	     57.33546363	      7.51517439	     60.55295862	    115.90432650	     88.37048616
      4.41666670	    -13.35321337	      0.89572143	     -0.78620549	      0.35935883	      0.68125385	     -0.02646840	     63.55970895	    -19.28660718	     -3.18861003	     80.18145472	     30.65770966	     -3.27038537	      0.00000000	     61.99016619	    -24.50939355	     -7.22807808	     79.59856321	     27.82914117	     -3.34549644	      0.00000000	    -30.51595952	     -2.84652260	      1.36737194	     75.81385714	      8.98473176	     75.93313701	    119.28464010	    101.11292124	     58.42450988	      7.29940797	     62.06859588	    116.20151095	     89.06690486
      4.43333330	    -12.90514418	      0.87459057	     -0.84883377	      0.36457704	      0.67128116	     -0.02892952	     64.59475350	    -19.49066087	     -2.46926724	     82.69949153	     31.69511841	     -3.25190221	      0.00000000	     63.07979621	    -24.94929539	     -6.58241497	     82.08268337	     28.63875872	     -3.37946518	      0.00000000	    -31.78758865	     -2.80701866	      1.10455185	     75.53686586	      9.15644483	     76.58245169	    119.44547271	    101.12345761	     58.82645629	      7.04622355	     63.44133052	    116.56121575	     89.70598255
      4.45000000	    -12.44106514	      0.79499768	     -0.94123677	      0.35763447	      0.66137943	     -0.02662057	     65.79111092	    -19.48720652	     -1.90744828	     85.00260557	     32.52117930	     -3.16965730	      0.00000000	     64.38029484	    -25.43215914	     -5.85310671	     84.47730336	     29.01444502	     -3.71631761	      0.00000000	    -33.18262583	     -2.88748244	      1.05416922	     76.00880963	      9.29897797	     76.60398762	    119.31756514	    101.10949850	     59.91954535	      6.94987157	     64.29225971	    116.85774894	     90.25370696
      4.46666670	    -12.14813757	      0.70749440	     -1.08027671	      0.35671551	      0.65037040	     -0.02719674	     67.15153080	    -19.48413787	     -1.34839987	     87.21118420	     33.66561071	     -2.76051353	      0.00000000	     65.99456256	    -25.85367186	     -4.99632742	     86.93491740	     29.30866918	     -4.18573344	      0.00000000	    -34.33217689	     -2.89947631	      1.08284708	     76.43034751	      9.34138215	     76.66472633	    119.46329366	    101.10594810	     60.82867659	      6.83761489	     64.99118971	    117.31305781	     90.76586168
      4.48333330	    -11.99949992	      0.65542867	     -1.28153656	      0.35598214	      0.63826043	     -0.02776773	     68.65642392	    -19.61746317	     -0.83161929	     89.51191860	     34.65208241	     -2.31656984	      0.00000000	     67.84223759	    -26.36847339	     -4.17947154	     89.53107112	     29.56122392	     -4.76600657	      0.00000000	    -35.10211153	     -2.90487555	      1.27432939	     76.88731787	      9.24359813	     76.81771437	    119.64628497	    101.10689418	     61.53028368	      6.76902826	     65.75046425	    117.72020229	     91.30813747
      4.50000000	    -11.57257851	      0.71976769	     -1.36756444	      0.35439090	      0.63169858	     -0.02795502	     69.67451331	    -19.93062954	     -0.36842355	     91.39160245	     35.19140472	     -2.40039976	      0.00000000	     68.97745074	    -26.69612394	     -3.69505193	     91.57946520	     29.73067476	     -5.14882404	      0.00000000	    -36.14806948	     -2.93624304	      1.47403556	     77.36233970	      8.85100815	     76.71104163	    119.47799608	    101.10378927	     62.22977961	      6.59184813	     65.64969491	    117.72311210	     91.49975607
      4.51666670	    -11.48666785	      0.70673590	     -1.50352045	      0.34763286	      0.61922894	     -0.02751990	     71.35545124	    -20.06630444	      0.21055368	     93.42521389	     35.96692835	     -1.71557116	      0.00000000	     70.88215366	    -26.89522046	     -2.73624728	     93.87263612	     29.70251874	     -5.58520399	      0.00000000	    -36.87260205	     -2.86964549	      1.95888496	     78.35168032	      8.58018760	     76.41485440	    119.67163503	    101.04627700	     63.08184612	      6.91790068	     66.06682084	    118.05148329	     92.01795794
